<?xml version="1.0" encoding="utf-8"?>
<svg viewBox="0 0 84 84" xmlns="http://www.w3.org/2000/svg">
  <g transform="matrix(0.10000000149011612, 0, 0, -0.10000000149011613, 1.7763568394002505e-15, 84)" stroke="none">
    <path d="M420 766 c0 -29 -10 -50 -44 -94 -90 -117 -141 -244 -153 -379 l-6 -77 34 23 c52 35 134 71 174 78 58 9 42 -19 -28 -48 -62 -26 -65 -31 -52 -74 6 -18 2 -20 -37 -17 -54 3 -140 -18 -146 -37 -4 -11 1 -12 19 -7 13 4 56 10 95 13 56 4 85 1 135 -15 94 -31 131 -35 190 -23 63 13 84 25 75 39 -4 7 -18 6 -41 -4 -19 -8 -36 -14 -38 -14 -3 0 2 26 9 58 8 31 14 62 14 68 0 6 -26 17 -59 24 -32 7 -63 15 -68 19 -5 3 -19 113 -30 244 -12 134 -26 244 -32 250 -8 8 -11 1 -11 -27z m28 -395 c-3 -20 -12 -26 -58 -38 -30 -7 -74 -25 -98 -39 -24 -14 -45 -24 -47 -22 -1 1 5 42 15 90 20 95 69 206 127 283 l37 50 13 -150 c7 -82 12 -161 11 -174z m28 -210 c1 -1 7 -1 12 3 5 3 6 28 2 56 -7 55 -8 55 56 39 39 -10 45 -15 40 -33 -2 -11 -8 -38 -11 -58 -7 -36 -10 -38 -43 -38 -19 0 -60 8 -90 17 -44 14 -58 24 -68 48 -13 30 -13 30 34 51 l47 22 9 -52 c5 -28 10 -53 12 -55z" style="fill-rule: nonzero;"/>
    <path d="M198 108 c-23 -6 -38 -16 -38 -25 0 -11 6 -13 23 -8 12 4 47 12 78 18 50 9 65 8 141 -16 54 -17 109 -27 147 -27 63 0 131 21 131 39 0 14 -7 14 -55 -4 -58 -21 -104 -18 -192 10 -83 26 -168 31 -235 13z" style="fill-rule: nonzero;"/>
  </g>
  <g transform="matrix(0.08097100257873535, 0, 0, -0.08042900264263153, 8.03541362885954, 62.89904696541737)" stroke="none">
    <path d="M 362.414 606.245 C 288.414 583.245 225.414 558.245 223.414 550.245 C 217.414 532.245 263.414 540.245 394.414 580.245 C 520.414 618.245 541.414 627.245 541.414 640.245 C 541.414 657.245 500.414 650.245 362.414 606.245 Z" style="paint-order: stroke markers;"/>
    <path d="M 0.969 556.319 C 0.969 549.319 17.969 529.319 37.969 509.319 C 129.969 423.319 221.969 415.319 417.969 478.319 C 529.969 513.319 554.969 518.319 620.969 515.319 C 661.969 513.319 702.969 509.319 710.969 507.319 C 719.969 504.319 725.969 508.319 725.969 517.319 C 725.969 539.319 644.969 559.319 583.969 553.319 C 555.969 550.319 481.969 530.319 418.969 510.319 C 269.969 462.319 169.969 458.319 100.969 498.319 C 75.969 513.319 46.969 534.319 36.969 546.319 C 15.969 569.319 0.969 573.319 0.969 556.319 Z" style="paint-order: stroke markers;"/>
    <path d="M 513.196 413.243 C 502.196 410.243 444.196 392.243 383.196 373.243 C 230.196 324.243 155.196 323.243 74.196 368.243 C 12.196 403.243 -6.804 404.243 24.196 369.243 C 93.196 292.243 216.196 284.243 398.196 344.243 C 536.196 390.243 627.196 397.243 696.196 366.243 C 744.196 344.243 764.196 353.243 730.196 381.243 C 688.196 414.243 582.196 430.243 513.196 413.243 Z" style="paint-order: stroke markers;"/>
    <path d="M20 276 c0 -22 67 -73 119 -91 74 -25 183 -14 189 19 3 16 0 17 -29 11 -90 -20 -177 -2 -246 51 -24 18 -33 21 -33 10z" style="paint-order: stroke markers;"/>
  </g>
</svg>