<svg version="1.1" xmlns="http://www.w3.org/2000/svg" xmlns:xlink="http://www.w3.org/1999/xlink" viewBox="0 0 652 652">
<polygon class="st0" points="160.7,278.6 147,278.6 135.6,239.9 135.4,239.9 124,278.6 110.2,278.6 93.9,221.3 108.8,221.3 
	117.9,259.4 118.2,259.4 128.4,221.3 142.8,221.3 153.1,259.4 153.4,259.4 162.6,221.3 177.1,221.3 "/>
<g>
	<path class="st0" d="M229.9,249.7c0-2.5-0.4-4.8-1.2-7c-0.8-2.2-1.9-4-3.4-5.5c-1.4-1.5-3.2-2.7-5.2-3.6c-2-0.9-4.3-1.3-6.7-1.3
		c-2.4,0-4.6,0.4-6.7,1.3c-2,0.9-3.7,2.1-5.2,3.6c-1.5,1.5-2.6,3.4-3.4,5.5c-0.8,2.2-1.2,4.5-1.2,7c0,2.6,0.4,5,1.2,7.2
		c0.8,2.2,1.9,4.1,3.4,5.6c1.4,1.6,3.2,2.8,5.2,3.7c2,0.9,4.2,1.3,6.7,1.3c2.4,0,4.7-0.5,6.7-1.3c2-0.9,3.7-2.1,5.2-3.7
		c1.5-1.6,2.6-3.4,3.4-5.6C229.5,254.7,229.9,252.3,229.9,249.7 M244.8,249.7c0,4.5-0.8,8.7-2.4,12.4c-1.6,3.7-3.7,7-6.5,9.6
		c-2.8,2.7-6.1,4.7-9.9,6.2c-3.8,1.5-8,2.2-12.5,2.2c-4.5,0-8.6-0.7-12.5-2.2c-3.8-1.4-7.1-3.5-9.9-6.2c-2.8-2.7-5-5.9-6.5-9.6
		c-1.6-3.7-2.4-7.9-2.4-12.4c0-4.6,0.8-8.7,2.4-12.4c1.6-3.7,3.7-6.8,6.5-9.4c2.8-2.6,6.1-4.6,9.9-6c3.8-1.4,8-2.1,12.5-2.1
		c4.5,0,8.7,0.7,12.5,2.1c3.8,1.4,7.2,3.4,9.9,6c2.8,2.6,5,5.7,6.5,9.4C244,241,244.8,245.1,244.8,249.7"/>
	<path class="st0" d="M287,238.9c0-1.3-0.3-2.4-0.9-3.3c-0.6-0.8-1.3-1.5-2.2-1.9c-0.9-0.5-1.9-0.8-3-0.9c-1.1-0.2-2.2-0.2-3.2-0.2
		h-7.4v13.3h6.6c1.1,0,2.3-0.1,3.5-0.3c1.2-0.2,2.3-0.5,3.3-1c1-0.5,1.8-1.2,2.4-2.1C286.7,241.5,287,240.3,287,238.9 M287.6,278.6
		l-12.5-22.7h-4.7v22.7h-13.6v-57.3h21.9c2.8,0,5.4,0.3,8.1,0.8c2.6,0.6,5,1.5,7.1,2.9c2.1,1.3,3.7,3.1,5,5.3c1.2,2.2,1.9,5,1.9,8.3
		c0,3.9-1.1,7.1-3.2,9.8c-2.1,2.6-5,4.5-8.8,5.7l15,24.5H287.6z"/>
</g>
<polygon class="st0" points="313.5,278.6 313.5,221.3 327.4,221.3 327.4,266.5 349.7,266.5 349.7,278.6 "/>
<g>
	<path class="st0" d="M398.2,249.8c0-3.2-0.5-5.9-1.6-8c-1.1-2.1-2.5-3.8-4.2-5.1c-1.8-1.3-3.8-2.2-6-2.7c-2.3-0.5-4.6-0.8-6.9-0.8
		h-6.9v33.5h6.6c2.5,0,4.9-0.3,7.2-0.8c2.3-0.6,4.3-1.5,6.1-2.8c1.8-1.3,3.2-3,4.2-5.2C397.7,255.7,398.2,253,398.2,249.8
		 M412.7,249.8c0,5-0.9,9.3-2.8,13c-1.9,3.6-4.3,6.6-7.4,9c-3.1,2.3-6.5,4.1-10.3,5.2c-3.9,1.1-7.7,1.7-11.7,1.7H359v-57.3h20.8
		c4.1,0,8.1,0.5,12,1.4c3.9,1,7.5,2.5,10.6,4.7c3.1,2.2,5.6,5.1,7.5,8.8C411.7,239.9,412.7,244.4,412.7,249.8"/>
</g>
<polygon class="st0" points="432.3,243.3 422.1,243.3 427.9,221.3 439.7,221.3 "/>
<g>
	<path class="st0" d="M482.3,236.2c-1.2-1.5-2.8-2.7-4.7-3.6c-1.9-0.9-3.8-1.3-5.6-1.3c-0.9,0-1.9,0.1-2.8,0.2
		c-1,0.2-1.8,0.5-2.6,0.9c-0.8,0.5-1.4,1-1.9,1.8c-0.5,0.7-0.8,1.7-0.8,2.8c0,1,0.2,1.8,0.6,2.4c0.4,0.6,1,1.2,1.8,1.7
		c0.8,0.5,1.7,0.9,2.8,1.3c1.1,0.4,2.3,0.8,3.7,1.3c1.9,0.6,4,1.4,6.1,2.1c2.1,0.8,4,1.8,5.8,3.1c1.7,1.3,3.2,2.9,4.3,4.8
		c1.1,1.9,1.7,4.3,1.7,7.2c0,3.3-0.6,6.1-1.8,8.5c-1.2,2.4-2.9,4.4-4.9,5.9c-2.1,1.6-4.4,2.7-7.1,3.5c-2.6,0.8-5.4,1.1-8.2,1.1
		c-4.1,0-8.1-0.7-11.9-2.1c-3.9-1.4-7-3.5-9.6-6.1l9.1-9.2c1.4,1.7,3.3,3.2,5.6,4.3c2.3,1.2,4.6,1.7,6.9,1.7c1,0,2-0.1,3-0.3
		c1-0.2,1.8-0.6,2.6-1c0.7-0.5,1.3-1.1,1.7-1.9c0.4-0.8,0.6-1.8,0.6-2.9c0-1.1-0.3-2-0.8-2.8c-0.6-0.8-1.3-1.4-2.3-2.1
		c-1-0.6-2.2-1.2-3.7-1.7c-1.5-0.5-3.2-1.1-5.1-1.7c-1.8-0.6-3.7-1.3-5.4-2.1c-1.8-0.8-3.3-1.9-4.7-3.1c-1.4-1.3-2.5-2.8-3.3-4.6
		c-0.8-1.8-1.2-4-1.2-6.6c0-3.2,0.6-5.9,1.9-8.2c1.3-2.3,3-4.1,5.1-5.6c2.1-1.5,4.5-2.5,7.1-3.2c2.7-0.7,5.3-1,8-1
		c3.2,0,6.6,0.6,9.9,1.8c3.4,1.2,6.3,2.9,8.9,5.2L482.3,236.2z"/>
	<path class="st0" d="M228.8,334.3c0-2.4-0.9-4-2.7-4.9c-1.8-0.9-4.2-1.4-7.1-1.4h-7.7v13.1h7.8c1.1,0,2.2-0.1,3.4-0.3
		c1.2-0.2,2.2-0.5,3.2-1c0.9-0.5,1.7-1.2,2.3-2.1C228.5,336.9,228.8,335.7,228.8,334.3 M226.9,311.6c0-1.9-0.7-3.4-2.2-4.2
		c-1.5-0.9-3.7-1.3-6.6-1.3h-6.8v11.8h7.5c2.6,0,4.6-0.5,6.1-1.6C226.2,315.2,226.9,313.6,226.9,311.6 M242.7,335.6
		c0,3.1-0.6,5.8-1.9,7.9c-1.2,2.1-2.9,3.8-5,5.1c-2.1,1.3-4.4,2.2-7,2.8c-2.6,0.6-5.3,0.8-8.1,0.8h-22.9V295h22.9
		c2.2,0,4.5,0.2,6.8,0.7c2.3,0.5,4.4,1.2,6.3,2.3c1.9,1.1,3.4,2.6,4.6,4.5c1.2,1.9,1.8,4.3,1.8,7.2c0,3.2-0.9,5.8-2.6,7.9
		c-1.7,2.1-4,3.6-6.8,4.5v0.2c1.6,0.3,3.2,0.8,4.6,1.5c1.4,0.7,2.7,1.7,3.7,2.8s1.9,2.5,2.5,4C242.4,332,242.7,333.7,242.7,335.6"/>
</g>
<polygon class="st0" points="254.7,352.3 254.7,295 293.3,295 293.3,306.7 268.1,306.7 268.1,317.5 292,317.5 292,328.6 
	268.1,328.6 268.1,340.5 294.8,340.5 294.8,352.3 "/>
<g>
	<path class="st0" d="M337.2,309.9c-1.2-1.5-2.8-2.7-4.7-3.6c-1.9-0.9-3.8-1.3-5.6-1.3c-0.9,0-1.9,0.1-2.8,0.2
		c-1,0.2-1.8,0.5-2.6,0.9c-0.8,0.5-1.4,1.1-1.9,1.8c-0.5,0.7-0.8,1.7-0.8,2.8c0,1,0.2,1.8,0.6,2.4c0.4,0.6,1,1.2,1.8,1.7
		c0.8,0.5,1.7,0.9,2.8,1.3c1.1,0.4,2.3,0.8,3.7,1.3c1.9,0.6,4,1.4,6.1,2.1c2.1,0.8,4,1.8,5.8,3.1c1.7,1.3,3.2,2.9,4.3,4.8
		c1.1,1.9,1.7,4.3,1.7,7.2c0,3.3-0.6,6.1-1.8,8.5c-1.2,2.4-2.9,4.4-4.9,5.9c-2.1,1.6-4.4,2.7-7.1,3.5c-2.6,0.8-5.4,1.1-8.2,1.1
		c-4.1,0-8.1-0.7-11.9-2.1c-3.9-1.4-7-3.5-9.6-6.1l9.1-9.2c1.4,1.7,3.3,3.2,5.6,4.3c2.3,1.2,4.6,1.7,6.9,1.7c1,0,2-0.1,3-0.3
		c1-0.2,1.8-0.6,2.6-1c0.7-0.5,1.3-1.1,1.7-1.9c0.4-0.8,0.6-1.8,0.6-2.9c0-1.1-0.3-2-0.8-2.8c-0.6-0.8-1.3-1.4-2.3-2.1
		c-1-0.6-2.2-1.2-3.7-1.7c-1.5-0.5-3.2-1.1-5.1-1.7c-1.8-0.6-3.7-1.3-5.4-2.1c-1.8-0.8-3.3-1.8-4.7-3.1c-1.4-1.3-2.5-2.8-3.3-4.6
		c-0.8-1.8-1.2-4-1.2-6.6c0-3.2,0.6-5.9,1.9-8.2s3-4.1,5.1-5.6c2.1-1.5,4.5-2.5,7.1-3.2c2.7-0.7,5.3-1,8-1c3.2,0,6.6,0.6,9.9,1.8
		c3.4,1.2,6.3,2.9,8.9,5.3L337.2,309.9z"/>
</g>
<polygon class="st0" points="381.2,306.8 381.2,352.3 367.3,352.3 367.3,306.8 351.1,306.8 351.1,295 397.4,295 397.4,306.8 "/>
<path class="st0" d="M134.1,384l-7.3,19.6h14.4L134.1,384z M149.6,425.9l-4.5-11.2h-22.2l-4.2,11.2h-15.1l24.1-57.3h13.5l23.9,57.3
	H149.6z"/>
<polygon class="st0" points="232.5,425.9 218.8,425.9 207.5,387.2 207.2,387.2 195.8,425.9 182,425.9 165.7,368.7 180.7,368.7 
	189.8,406.8 190,406.8 200.2,368.7 214.7,368.7 225,406.8 225.2,406.8 234.5,368.7 248.9,368.7 "/>
<path class="st0" d="M280.3,384l-7.3,19.6h14.4L280.3,384z M295.7,425.9l-4.5-11.2H269l-4.2,11.2h-15.1l24.1-57.3h13.5l23.9,57.3
	H295.7z"/>
<g>
	<path class="st0" d="M349,386.2c0-1.3-0.3-2.4-0.9-3.3c-0.6-0.8-1.3-1.5-2.2-1.9c-0.9-0.5-1.9-0.8-3-0.9c-1.1-0.2-2.2-0.2-3.2-0.2
		h-7.4v13.3h6.6c1.1,0,2.3-0.1,3.5-0.3c1.2-0.2,2.3-0.5,3.3-1c1-0.5,1.8-1.2,2.4-2.1C348.6,388.9,349,387.7,349,386.2 M349.5,425.9
		L337,403.2h-4.7v22.7h-13.6v-57.3h21.9c2.8,0,5.4,0.3,8.1,0.8c2.6,0.6,5,1.5,7.1,2.9c2.1,1.4,3.7,3.1,5,5.3c1.2,2.2,1.9,5,1.9,8.3
		c0,3.9-1.1,7.1-3.2,9.8c-2.1,2.6-5,4.5-8.8,5.7l15,24.5H349.5z"/>
	<path class="st0" d="M414.6,397.1c0-3.2-0.5-5.9-1.6-8c-1.1-2.1-2.5-3.8-4.2-5.1c-1.8-1.3-3.8-2.2-6-2.7c-2.2-0.5-4.6-0.8-6.9-0.8
		H389V414h6.6c2.5,0,4.9-0.3,7.2-0.9c2.3-0.6,4.3-1.5,6.1-2.8c1.8-1.3,3.2-3,4.2-5.2C414.1,403,414.6,400.3,414.6,397.1
		 M429.1,397.1c0,5-0.9,9.3-2.8,13c-1.9,3.6-4.3,6.6-7.4,9c-3.1,2.3-6.5,4.1-10.3,5.2c-3.8,1.1-7.7,1.7-11.7,1.7h-21.4v-57.3h20.8
		c4.1,0,8.1,0.5,12,1.4c3.9,0.9,7.5,2.5,10.6,4.7c3.1,2.2,5.6,5.1,7.5,8.8C428.1,387.2,429.1,391.8,429.1,397.1"/>
	<path class="st0" d="M471.5,383.6c-1.2-1.5-2.8-2.7-4.7-3.6c-1.9-0.9-3.8-1.3-5.6-1.3c-0.9,0-1.9,0.1-2.8,0.2
		c-1,0.2-1.8,0.5-2.6,0.9c-0.8,0.5-1.4,1-1.9,1.8c-0.5,0.7-0.8,1.7-0.8,2.8c0,1,0.2,1.8,0.6,2.4c0.4,0.6,1,1.2,1.8,1.7
		c0.8,0.5,1.7,0.9,2.8,1.3c1.1,0.4,2.3,0.8,3.7,1.2c1.9,0.6,4,1.4,6.1,2.1c2.1,0.8,4,1.8,5.8,3.1c1.7,1.3,3.2,2.9,4.3,4.8
		c1.1,1.9,1.7,4.3,1.7,7.2c0,3.3-0.6,6.1-1.8,8.5c-1.2,2.4-2.9,4.4-4.9,5.9c-2.1,1.6-4.4,2.7-7.1,3.5c-2.6,0.8-5.4,1.1-8.2,1.1
		c-4.1,0-8.1-0.7-11.9-2.1c-3.9-1.4-7-3.5-9.6-6.1l9.1-9.2c1.4,1.7,3.3,3.2,5.6,4.3c2.3,1.2,4.6,1.7,6.9,1.7c1,0,2-0.1,3-0.3
		c1-0.2,1.8-0.6,2.6-1c0.7-0.5,1.3-1.1,1.7-1.9c0.4-0.8,0.6-1.8,0.6-2.9c0-1.1-0.3-2-0.8-2.7c-0.6-0.8-1.3-1.4-2.3-2.1
		c-1-0.6-2.2-1.2-3.7-1.7c-1.5-0.5-3.2-1.1-5.1-1.7c-1.8-0.6-3.7-1.3-5.4-2.1c-1.8-0.8-3.3-1.9-4.7-3.1c-1.4-1.3-2.5-2.8-3.3-4.6
		c-0.8-1.8-1.2-4-1.2-6.6c0-3.2,0.6-5.9,1.9-8.2c1.3-2.3,3-4.1,5.1-5.6c2.1-1.5,4.5-2.5,7.1-3.2c2.7-0.7,5.3-1,8-1
		c3.2,0,6.6,0.6,9.9,1.8c3.4,1.2,6.3,2.9,8.9,5.3L471.5,383.6z"/>
	<path class="st0" d="M610.4,318L610.4,318c-2.1-0.4-7.7-0.6-12.2-0.7l-10.8-14.7c-1.3-2.3-2.6-3.9-4-5c-1.5-1.1-3.3-1.7-5.3-1.7
		l-3.1,0l6.9,21.5c-3.1,0.2-8,0.6-10.4,0.8c-0.2-0.2-0.5-0.6-0.8-1c-0.8-1-1.8-2.5-3.1-4.4l-0.7-1H559l3.9,10.3l-4,10.2h7.9l0.7-1
		c1.4-2.1,2.4-3.4,3.1-4.3c0.4-0.5,0.7-0.9,0.9-1.1c2.4,0.3,7.2,0.7,10.3,0.9l-7.1,21.4h3.1h0c2,0,3.7-0.6,5.3-1.7
		c1.4-1,2.7-2.6,4.1-4.9l11-14.6c4.5,0,10.2-0.2,12.3-0.6c4.1-0.7,5-2.6,5-4.1C615.4,320.1,613.7,318.7,610.4,318"/>
	<path class="st0" d="M487.5,460.1h-89.3v10.1h81.7c-10.6,13.3-22.5,25.6-35.6,36.4H137.1c-13.1-10.8-25-23.1-35.6-36.4h82.8v-10.1
		H94c-27.1-38.2-43.2-84.5-44-134.5h115.7v-10.1H50.1c1.3-48.9,17.4-94.2,43.9-131.6h90.4v-10.1h-82.8c10.3-13,21.8-24.9,34.6-35.6
		h309.2c12.7,10.6,24.3,22.6,34.6,35.6h-81.7v10.1h89.3c26.5,37.4,42.6,82.7,43.9,131.6h-111v10.1h111.1
		C530.8,375.6,514.6,421.9,487.5,460.1 M293.8,561.8v-45.1h73.3C351.8,548.4,319.5,560.8,293.8,561.8 M346.2,555.4
		c13.2-8.7,24.7-21.4,32-38.7h53C406.1,534.8,377.3,548.1,346.2,555.4 M283.7,561.6c-25.2-1.8-55.6-14.5-70.4-44.9h70.4V561.6z
		 M150.3,516.7h51.9c7.2,17.1,18.4,29.6,31.3,38.3C203.2,547.6,175,534.4,150.3,516.7 M285.7,82.4v45.8h-72.8
		C227.9,96.3,259.9,83.7,285.7,82.4 M233.8,89c-13.2,8.9-24.7,21.7-31.9,39.2h-52.8C174.1,110,202.8,96.5,233.8,89 M295.8,82.4
		c25.6,1.6,56.9,14.3,71.7,45.8h-71.7V82.4z M432.4,128.2h-53.9c-7.3-17.8-19-30.7-32.5-39.6C377.7,96,406.9,109.7,432.4,128.2
		 M549.8,315.5h-8.2C538.1,180.7,427,72,290.7,72C154.5,72,43.4,180.7,39.9,315.5H26.3v10.1h13.6c1.1,76.7,37,145.2,92.7,190.3v0.8
		h1c42.4,34,96,54.6,154.3,55.2c0.8,0,1.6,0.1,2.3,0.1c0.1,0,0.2,0,0.2,0c0.1,0,0.2,0,0.3,0c137.2,0,248.9-110.2,250.9-246.4h8.2
		V315.5z"/>
</g>
<polygon class="st0" points="345.9,164.5 356.9,164.5 356.9,175.3 358.9,175.3 358.9,164.5 369.9,164.5 369.9,162.6 358.9,162.6 
	358.9,152.1 356.9,152.1 356.9,162.6 345.9,162.6 "/>
<g>
	<path class="st0" d="M306.9,202.4c-6.3,0-10.5-3.6-10.5-9.1v-14.7h5.6v14.7c0,3.1,2.7,4.2,5,4.2c3.1,0,5-1.6,5-4.2v-14.7h5.6v14.7
		C317.5,198.8,313.3,202.4,306.9,202.4"/>
	<path class="st0" d="M282.1,202.4c-4.7,0-8.8-1.5-12.6-4.5l-0.2-0.2l3.2-3.8l0.2,0.2c2.2,1.7,5.2,3.7,9.5,3.7
		c2.2,0,4.8-0.8,4.8-2.9c0-1.8-1.9-2.3-5.4-2.6c-4.4-0.3-11-0.7-11-6.9c0-5.5,5-7.4,9.6-7.4c4.6,0,8.7,1.7,10.7,3.1l0.3,0.2
		l-3.2,3.9l-0.2-0.2c-0.7-0.6-3.5-2.3-7.7-2.3c-1.9,0-3.9,0.6-3.9,2.4c0,1.6,2.5,1.8,5.2,2l0.4,0c4,0.3,10.8,0.7,10.8,7.2
		C292.5,199.5,288.7,202.4,282.1,202.4"/>
</g>
<polygon class="st0" points="369.4,201.7 349.2,201.7 349.2,178.7 368.6,178.7 368.6,183.5 354.8,183.5 354.8,187.3 363.1,187.3 
	363.1,192.1 354.8,192.1 354.8,196.9 369.4,196.9 "/>
<rect x="259.9" y="178.7" class="st0" width="5.5" height="23"/>
<polygon class="st0" points="255.1,201.7 235,201.7 235,178.7 254.3,178.7 254.3,183.5 240.5,183.5 240.5,187.3 248.8,187.3 
	248.8,192.1 240.5,192.1 240.5,196.9 255.1,196.9 "/>
<polygon class="st0" points="231.8,201.7 213,201.7 213,178.7 218.5,178.7 218.5,196.9 231.8,196.9 "/>
<g>
	<path class="st0" d="M340.1,192.5c2.8-1.3,4.4-3.7,4.4-6.5c0-1.8-0.7-3.5-1.9-4.8c-1.6-1.7-3.9-2.5-7-2.5h-12.8v23h5.5v-8.2h6.2
		l4.5,8.2h6.4L340.1,192.5z M336.1,188.7h-7.8v-5.3h7.4c0.9,0,1.8,0.1,2.5,0.9c0.5,0.5,0.7,1.1,0.7,1.7
		C338.9,187.6,337.7,188.7,336.1,188.7"/>
</g>
<polygon class="st0" points="350.5,175.2 331.8,175.2 331.8,152.2 337.3,152.2 337.3,170.3 350.5,170.3 "/>
<polygon class="st0" points="328,175.2 307.9,175.2 307.9,152.2 327.2,152.2 327.2,157 313.4,157 313.4,160.8 321.7,160.8 
	321.7,165.6 313.4,165.6 313.4,170.3 328,170.3 "/>
<polygon class="st0" points="295,175.2 290.3,175.2 279.6,152.2 285.9,152.2 292.8,168.2 299.6,152.2 305.7,152.2 "/>
<polygon class="st0" points="223.4,175.2 217.9,175.2 217.9,157 209.7,157 209.7,152.2 231.5,152.2 231.5,157 223.4,157 "/>
<path class="st0" d="M273.6,152.2H269l-10.7,23h5.9l2-4.7h10l2.1,4.7h6.1L273.6,152.2z M268.2,165.9l3-7.1l3.1,7.1H268.2z"/>
<g>
	<path class="st0" d="M251.5,166c2.8-1.3,4.4-3.7,4.4-6.4c0-1.8-0.7-3.5-1.9-4.8c-1.6-1.7-3.9-2.5-7-2.5h-12.8v23h5.5v-8.2h6.2
		l4.5,8.2h6.4L251.5,166z M247.6,162.2h-7.8v-5.3h7.4c0.9,0,1.8,0.1,2.5,0.9c0.5,0.5,0.7,1.1,0.7,1.7
		C250.4,161,249.2,162.2,247.6,162.2"/>
	<path class="st0" d="M226.3,471.6c1.7-0.5,3.7-0.8,6-1c1-0.1,2.1-0.2,3.2-0.4c6.2-0.9,12.4-4.9,12.4-11.8
		c0-8.3-10.1-11.4-16.8-11.4c-7.8,0-11.2,1.2-17.7,4.7l-0.4,0.2l3.1,6.4l0.5-0.2c5.2-2.7,8.5-3.9,14.5-3.9c2.5,0,9.5,0.8,9.5,4.4
		c0,3-3.4,3.8-4.5,3.9c-1.6,0.3-3.2,0.5-4.8,0.6c-1.4,0.1-2.7,0.3-4.1,0.5c-10.5,1.6-15.3,11.2-15.3,20.1c0,0.8,0.1,1.6,0.2,2.4
		l0.1,0.4h35.8v-7.3h-27.9C221.5,474.1,223.6,472.4,226.3,471.6"/>
	<path class="st0" d="M295.1,467.1c0,9.4-8,13.6-15.5,13.6c-7.8,0-15.6-4.5-15.6-13.2c0-9.3,8.1-13.5,15.7-13.5
		C287.1,454,295.1,458.1,295.1,467.1 M292.6,449.9c-3.5-2-7.9-3-13-3c-10.9,0-19.1,5.2-21.9,13.9c-0.7,2.2-1.1,4.6-1.1,6.7
		c0,7.4,4.5,14.6,11.2,18c4,2,8.1,2.3,11.6,2.3c5.5,0,9.6-0.9,13.1-2.9c6.2-3.5,10.1-10.4,10.1-17.5
		C302.5,460.2,298.6,453.4,292.6,449.9"/>
</g>
<rect x="313.7" y="447.8" class="st0" width="7.2" height="38.9"/>
<g>
	<path class="st0" d="M367.5,475.3c0,4.1-9.9,5-13.7,5c-4.7,0-13.5-1-13.5-4.8c0-0.4,0.4-1.3,0.7-1.7c2.3-3.3,9.1-4.1,12.8-4.1
		c2.1,0,3.8,0.1,5.4,0.5h0C362.5,470.7,367.5,472.6,367.5,475.3 M354.2,462.5c-3.1,0-11.2-0.8-11.2-4.4c0-3.4,6.5-3.9,10.4-3.9
		c7.2,0,11.4,1.4,11.4,3.8C364.8,461.4,357.6,462.5,354.2,462.5 M372.5,469.1c-1.2-1.5-2.9-2.4-4.7-3.2c2.9-2.2,4.3-4.7,4.3-8.1
		c0-7-6.5-10.9-18.2-10.9c-12,0-18.4,3.7-18.4,10.7c0,3.3,1.3,5.9,4.3,8.3c-2.2,1.1-4.5,2.6-5.9,5.3c-0.8,1.5-1.2,3-1.2,4.5
		c0,11.1,16.4,12,21.4,12c19.3,0,20.8-9.2,20.8-12.1C375,473.3,374.1,471,372.5,469.1"/>
</g>
</svg>
