<?xml version="1.0" encoding="utf-8"?>
<!-- Generator: Adobe Illustrator 24.3.0, SVG Export Plug-In . SVG Version: 6.00 Build 0)  -->
<svg version="1.0" id="Layer_1" xmlns="http://www.w3.org/2000/svg" xmlns:xlink="http://www.w3.org/1999/xlink" x="0px" y="0px"
	 viewBox="0 0 482 368" style="enable-background:new 0 0 482 368;" xml:space="preserve">
<path d="M114.1,310.3h9.9c4.5,0,7.4,2.8,7.4,6.2c0.1,2.4-1.2,4.6-3.4,5.5c2.7,1,4.7,2.9,4.7,6.4c0,4.8-3.5,8-9.1,8h-9.5V310.3z
	 M123.4,320.3c1.4,0,2.6-1.2,2.6-2.6s-1.2-2.6-2.6-2.6h-3.7v5.2H123.4z M123.3,331.4c2.4,0,3.9-1,3.9-3.3s-1.4-3.3-3.9-3.3h-3.6v6.6
	L123.3,331.4L123.3,331.4z"/>
<path d="M153.4,328.5h-13.7c0.1,2.4,2.1,4.2,4.4,4.2c1.9,0.2,3.6-1,4.2-2.8h5c-0.9,4.5-4.2,7.1-9.2,7.1c-5.8,0-9.6-4.3-9.6-9.8
	c-0.1-5.2,4-9.6,9.2-9.8c0.1,0,0.2,0,0.3,0c5.8,0,9.3,3.5,9.3,10.2L153.4,328.5z M139.9,324.6h8.6c-0.5-1.9-2.4-3.2-4.4-3
	C142.2,321.6,140.5,322.8,139.9,324.6z"/>
<path d="M155.1,330.5h5.3c-0.1,1.1,0.8,2.1,1.9,2.1c0.1,0,0.1,0,0.2,0c1.2,0,2-0.6,2-1.5s-0.8-1.6-2.5-2.1l-2.4-0.7
	c-2.4-0.5-4.1-2.7-4.1-5.1c0-3.4,3.1-5.6,6.9-5.6c4.3,0,6.7,2.5,6.7,5.9h-4.9c0-1-0.8-1.8-1.8-1.8c0,0,0,0-0.1,0
	c-1,0-1.8,0.6-1.8,1.3s0.7,1.3,2.1,1.7l2.7,0.8c2.5,0.7,4.2,2.4,4.2,5.1c0,3.5-2.7,6.5-7.1,6.5C158.4,337,155.1,334.5,155.1,330.5z"
	/>
<path d="M178.6,322.4v7.1c-0.1,1.1,0.6,2.1,1.7,2.2c0.2,0,0.4,0,0.5,0h2.1v4.8h-3.8c-3.4,0-5.8-2.3-5.8-6.1v-8h-2.7V318h2.7v-4.7
	h5.2v4.7h4.3v4.3L178.6,322.4z"/>
<path d="M192.8,327.3c-0.1-5.5,4.2-10.1,9.8-10.2c5.5-0.1,10.1,4.2,10.2,9.8s-4.2,10.1-9.8,10.2c-0.1,0-0.2,0-0.2,0
	c-5.3,0.3-9.7-3.8-10-9.1C192.8,327.7,192.8,327.5,192.8,327.3z M207.6,327.3c-0.1-2.6-2.3-4.7-4.9-4.6c-2.6,0.1-4.7,2.3-4.6,4.9
	c0.1,2.6,2.2,4.6,4.8,4.6c2.6,0.1,4.7-1.9,4.8-4.5C207.6,327.5,207.6,327.4,207.6,327.3z"/>
<path d="M221.6,317.4v0.6h4.3v4.3h-4.3v14.1h-5.2v-14.1h-2.7V318h2.7v-1.2c0-4.2,2.8-6.5,6.2-6.5h3.4v4.8h-2.1
	c-1.1-0.1-2.1,0.6-2.2,1.7C221.5,317,221.5,317.2,221.6,317.4z"/>
<path d="M242.9,322.4v7.1c-0.1,1.1,0.6,2.1,1.7,2.2c0.2,0,0.4,0,0.5,0h2.1v4.8h-3.8c-3.4,0-5.8-2.3-5.8-6.1v-8H235V318h2.6v-4.7h5.2
	v4.7h4.3v4.3L242.9,322.4z"/>
<path d="M250.1,310.3h5.2v10.2c1.3-2,3.5-3.1,5.9-3c3.7,0,6.2,2.6,6.2,6.8v12.2h-5.2v-10.7c0.1-1.9-1.4-3.5-3.3-3.6
	s-3.5,1.4-3.6,3.3c0,0.1,0,0.2,0,0.4v10.7h-5.2L250.1,310.3z"/>
<path d="M289,328.5h-13.7c0.1,2.4,2.1,4.2,4.4,4.2c1.9,0.2,3.6-1,4.1-2.8h5c-0.9,4.5-4.2,7.1-9.2,7.1c-5.8,0-9.6-4.3-9.6-9.8
	c-0.1-5.2,4-9.6,9.2-9.8c0.1,0,0.2,0,0.3,0c5.8,0,9.4,3.5,9.4,10.2L289,328.5z M275.5,324.6h8.6c-0.5-1.9-2.4-3.2-4.4-3
	C277.8,321.6,276.1,322.8,275.5,324.6z"/>
<path d="M299.7,310.3h9.8c4.5,0,7.4,2.8,7.4,6.2c0.1,2.4-1.3,4.6-3.4,5.5c2.7,1,4.7,2.9,4.7,6.4c0,4.8-3.5,8-9.1,8h-9.4V310.3
	L299.7,310.3z M308.9,320.3c1.4,0,2.6-1.2,2.6-2.6s-1.2-2.6-2.6-2.6h-3.7v5.2H308.9z M308.8,331.4c2.4,0,3.9-1,3.9-3.3
	s-1.4-3.3-3.9-3.3h-3.6v6.6L308.8,331.4L308.8,331.4z"/>
<path d="M338.9,328.5h-13.7c0.1,2.4,2.1,4.2,4.4,4.2c1.9,0.2,3.6-1,4.1-2.8h5c-0.9,4.5-4.2,7.1-9.2,7.1c-5.8,0-9.6-4.3-9.6-9.8
	c-0.1-5.2,4-9.6,9.2-9.8c0.1,0,0.2,0,0.3,0c5.8,0,9.4,3.5,9.4,10.2L338.9,328.5z M325.5,324.6h8.5c-0.5-1.9-2.4-3.2-4.4-3
	C327.7,321.6,326.1,322.8,325.5,324.6z"/>
<path d="M340.7,330.5h5.3c-0.1,1.1,0.8,2.1,1.9,2.1c0.1,0,0.1,0,0.2,0c1.2,0,2-0.6,2-1.5s-0.8-1.6-2.5-2.1l-2.4-0.7
	c-2.4-0.5-4.1-2.7-4.1-5.1c0-3.4,3.1-5.6,6.9-5.6c4.3,0,6.7,2.5,6.7,5.9h-4.9c0-1-0.8-1.8-1.8-1.8c0,0,0,0-0.1,0
	c-1,0-1.8,0.6-1.8,1.3s0.7,1.3,2.1,1.7l2.7,0.8c2.5,0.7,4.2,2.4,4.2,5.1c0,3.5-2.7,6.5-7.1,6.5C343.9,337,340.7,334.5,340.7,330.5z"
	/>
<path d="M364.1,322.4v7.1c-0.1,1.1,0.6,2.1,1.7,2.2c0.2,0,0.4,0,0.5,0h2.1v4.8h-3.8c-3.4,0-5.8-2.3-5.8-6.1v-8h-2.6V318h2.6v-4.7
	h5.2v4.7h4.3v4.3L364.1,322.4z"/>
<path d="M241,110.7c-38.2,0-69.1,31-69.1,69.1s31,69.1,69.1,69.1s69.1-31,69.1-69.1S279.2,110.7,241,110.7L241,110.7z M241,241.3
	c-33.9,0-61.4-27.5-61.4-61.4s27.5-61.4,61.4-61.4s61.4,27.5,61.4,61.4l0,0C302.4,213.8,274.9,241.3,241,241.3z M225.6,184.6
	c0,4.7-3.8,8.5-8.5,8.5s-8.5-3.8-8.5-8.5s3.8-8.5,8.5-8.5S225.6,179.8,225.6,184.6C225.6,184.5,225.6,184.5,225.6,184.6L225.6,184.6
	z M273.3,184.6c0,4.7-3.8,8.5-8.5,8.5c-4.7,0-8.5-3.8-8.5-8.5s3.8-8.5,8.5-8.5l0,0C269.5,176.1,273.3,179.9,273.3,184.6
	C273.3,184.5,273.3,184.5,273.3,184.6L273.3,184.6z M281,166.9l7.8-8.5h-17.3c-18.4-12.5-42.5-12.5-60.8,0h-17.4l7.8,8.5
	c-9.7,8.9-10.3,24-1.4,33.7s24,10.3,33.7,1.4l0,0l7.6,8.3l7.6-8.3c9.7,8.9,24.8,8.3,33.7-1.4C291.3,191,290.7,175.9,281,166.9z
	 M217.2,200.7c-8.9,0-16.1-7.2-16.1-16.1s7.2-16.1,16.1-16.1s16.1,7.2,16.1,16.1C233.4,193.5,226.1,200.7,217.2,200.7L217.2,200.7
	L217.2,200.7z M241,184.1c0-10.6-7.7-19.7-17.9-23.6c11.5-4.8,24.4-4.8,35.8,0C248.7,164.4,241,173.5,241,184.1z M264.9,200.7
	c-8.9,0-16.1-7.2-16.1-16.1c0-8.9,7.2-16.1,16.1-16.1c8.9,0,16.1,7.2,16.1,16.1S273.8,200.7,264.9,200.7L264.9,200.7z"/>
<path d="M202.5,256.3c0,0-8.4-6.4-23.5-8.2c-9.1-0.9-18.3,1.2-26.1,6.2c0,0,10,4.1,25.4,5.7C193.7,261.6,202.5,256.3,202.5,256.3z"
	/>
<path d="M179.1,243.1c0,0-7.5-7.8-21.6-13.1c-8.9-3.2-18.4-3.9-27.6-2c0,0,8.6,8.2,23.6,13.9S179.1,243.1,179.1,243.1z"/>
<path d="M156.7,224.7c0,0-4.4-10.7-16.1-21.5c-7.4-6.6-16.5-11-26.3-12.7c0,0,5.3,11.6,17.7,23.1S156.7,224.7,156.7,224.7z"/>
<path d="M152.3,204.1c0,0-1.5-11.6-9.9-25c-5.4-8.3-13-14.9-22-19c0,0,2.1,12.6,11.1,26.9S152.3,204.1,152.3,204.1z"/>
<path d="M152.8,176.5c0,0-0.4-11.8-7.5-26.2c-4.5-8.8-11.4-16.2-19.9-21.2c1.2,9.8,4,19.4,8.5,28.3
	C141.5,172.6,152.8,176.5,152.8,176.5z"/>
<path d="M186.3,235.2c0,0-3.5-8.8-13-17.7c-6-5.4-13.4-9.1-21.3-10.6c3.6,7.1,8.4,13.6,14.3,19C176.3,235.4,186.3,235.2,186.3,235.2
	z"/>
<path d="M210.2,248.3c-4-3.5-8.7-6.3-13.7-8.2c-5.5-2.1-11.5-2.7-17.3-1.8c4.5,3.7,9.6,6.6,15,8.7
	C203.6,250.7,210.2,248.3,210.2,248.3z"/>
<path d="M233.3,253c-4-1.4-8.3-2-12.6-1.8c-4.7,0.2-9.2,1.7-13.1,4.4c4.4,1.4,9.1,2,13.7,1.8C229.3,257.1,233.3,253,233.3,253z"/>
<path d="M175.9,214c0,0-1.6-9.4-9.1-20c-4.7-6.6-11.2-11.6-18.7-14.7c2,7.7,5.5,15,10.1,21.5C166.1,212.2,175.9,214,175.9,214z"/>
<path d="M166.6,185.4c0,0,1.8-9.5-1.2-22.2c-2-7.8-6.1-15-12-20.5c-0.8,8.1-0.3,16.2,1.7,24.1C158.2,180.3,166.6,185.4,166.6,185.4z
	"/>
<path d="M279.5,256.3c0,0,8.4-6.4,23.5-8.2c9.1-0.9,18.4,1.2,26.1,6.2c0,0-10.1,4.1-25.4,5.7C288.4,261.6,279.5,256.3,279.5,256.3z"
	/>
<path d="M303,243.1c0,0,7.5-7.8,21.6-13.1c8.9-3.2,18.4-3.9,27.6-2c0,0-8.6,8.2-23.6,13.9S303,243.1,303,243.1z"/>
<path d="M325.4,224.7c0,0,4.4-10.7,16.1-21.5c7.4-6.6,16.5-11,26.3-12.7c0,0-5.3,11.6-17.7,23.1S325.4,224.7,325.4,224.7z"/>
<path d="M329.8,204.1c0,0,1.5-11.6,9.9-25c5.4-8.3,13-14.9,22-19c0,0-2.1,12.6-11.1,26.9S329.8,204.1,329.8,204.1z"/>
<path d="M329.2,176.5c0,0,0.4-11.8,7.5-26.2c4.5-8.8,11.4-16.2,19.9-21.2c0,0-1,12.9-8.5,28.3S329.2,176.5,329.2,176.5z"/>
<path d="M295.7,235.2c0,0,3.5-8.8,13-17.7c6-5.4,13.4-9.1,21.4-10.6c-3.6,7.1-8.4,13.6-14.3,19C305.7,235.4,295.7,235.2,295.7,235.2
	z"/>
<path d="M271.9,248.3c4-3.5,8.7-6.3,13.8-8.2c5.5-2.1,11.5-2.7,17.3-1.8c-4.5,3.7-9.6,6.6-15,8.7
	C278.4,250.7,271.9,248.3,271.9,248.3z"/>
<path d="M248.7,253c4-1.4,8.3-2,12.6-1.8c4.7,0.2,9.2,1.7,13.1,4.4c-4.4,1.4-9,2-13.7,1.8C252.7,257.1,248.7,253,248.7,253z"/>
<path d="M306.2,214c0,0,1.6-9.4,9.1-20c4.7-6.6,11.2-11.6,18.7-14.7c-2,7.7-5.5,15-10.1,21.5C315.9,212.2,306.2,214,306.2,214z"/>
<path d="M315.5,185.4c0,0-1.8-9.5,1.2-22.2c2-7.8,6.1-15,12-20.5c0.9,8.1,0.3,16.2-1.7,24.1C323.8,180.3,315.5,185.4,315.5,185.4z"
	/>
<circle cx="241" cy="256.4" r="3.8"/>
<path d="M166.6,34h-9v26.5h-7V34h-9v-6.4h24.9L166.6,34z"/>
<path d="M178.9,37.3v6.2h-3.5c-2.5,0-3.8,1.2-3.8,3.8v13.2H165V37.3h6.1v4.3c0.2-2.5,2.3-4.4,4.8-4.3H178.9z"/>
<path d="M179.6,48.9c0-6.8,4.8-12.3,11.5-12.3c2.7-0.1,5.3,0.8,7.3,2.6v-2h6.1v23.2h-6.1v-2.8c-1.5,2-3.7,3.5-7.5,3.5
	C184.4,61.2,179.6,55.7,179.6,48.9z M198.4,48.9c0-3.4-2.8-6.1-6.1-6.1c-3.4,0-6.1,2.8-6.1,6.1c0,3.4,2.8,6.1,6.1,6.1
	c3.3,0.1,6-2.5,6.1-5.8C198.4,49.2,198.4,49,198.4,48.9z"/>
<path d="M207.1,37.3h7l3.5,12.3c0.4,1.4,0.6,2.3,0.9,3.4c0.2-1.1,0.5-2,0.9-3.4l3.6-12.3h7l-7.7,23.2h-7.5L207.1,37.3z"/>
<path d="M253.5,50.5h-17.2c0.1,3,2.6,5.3,5.5,5.3c2.7,0,4.6-1.4,5.2-3.5h6.3c-1.1,5.7-5.3,9-11.5,9c-7.3,0-12.1-5.4-12.1-12.3
	c-0.2-6.6,5-12.1,11.6-12.3c0.1,0,0.3,0,0.4,0c7.3,0,11.8,4.5,11.8,12.8V50.5z M236.6,45.5h10.8c-0.6-2.3-2.5-3.8-5.5-3.8
	C239.5,41.7,237.4,43.3,236.6,45.5z"/>
<path d="M256.5,27.6h6.5v32.9h-6.6L256.5,27.6z"/>
<path d="M289.5,50.5h-17.2c0.1,3,2.6,5.3,5.5,5.3c2.7,0,4.6-1.4,5.2-3.5h6.3c-1.1,5.7-5.3,9-11.5,9c-7.3,0-12.1-5.4-12.1-12.3
	c-0.2-6.6,5-12.1,11.6-12.3c0.1,0,0.3,0,0.4,0c7.3,0,11.8,4.5,11.8,12.8V50.5z M272.6,45.5h10.8c-0.6-2.3-2.5-3.8-5.5-3.8
	C275.4,41.7,273.3,43.3,272.6,45.5z"/>
<path d="M306.2,37.3v6.2h-3.5c-2.5,0-3.8,1.2-3.8,3.8v13.2h-6.6V37.3h6.1v4.3c0.2-2.5,2.3-4.4,4.8-4.3H306.2z"/>
<path d="M308,52.9h6.7c-0.1,1.4,0.9,2.5,2.2,2.7c0.1,0,0.2,0,0.4,0c1.5,0,2.5-0.8,2.5-1.9s-1-2-3.1-2.6l-3-0.9
	c-3.1-0.9-5.2-3-5.2-6.4c0-4.3,3.9-7.1,8.7-7.1c5.5,0,8.5,3.1,8.5,7.4h-6.2c0-1.2-1-2.2-2.2-2.2c0,0,0,0-0.1,0
	c-1.3,0-2.2,0.8-2.2,1.6c0,1.1,0.9,1.6,2.7,2.1l3.4,0.9c3.1,0.8,5.3,3,5.3,6.4c0,4.4-3.4,8.2-8.9,8.2C312.1,61.2,308,58,308,52.9z"
	/>
<path d="M328.6,38.3h0.6c1.6,0,3.1-0.8,3.3-3.2c-0.3,0.1-0.6,0.2-0.9,0.2c-2.2,0.1-4-1.7-4.1-3.9c0-0.1,0-0.1,0-0.2
	c0-2.3,1.9-4.1,4.1-4.1l0,0c3,0,4.6,2.7,4.6,6.3c0,5.7-2.8,8.4-6.7,8.4h-1L328.6,38.3z"/>
<path d="M166.1,86.3c0-10.1,7.5-17.1,16.6-17.1c8.8,0,14.4,4.9,15.6,12.7h-7.1c-1-3.8-4.1-6.2-8.6-6.2c-5.3,0-9.6,4.3-9.6,10.6
	s4.3,10.7,9.6,10.7c4.4,0,7.5-2.3,8.6-6.2h7.2c-1.4,7.9-7.6,12.7-15.8,12.7C173.5,103.4,166.1,96.4,166.1,86.3z"/>
<path d="M201.3,69.9h6.6v12.8c1.6-2.5,4.4-4,7.4-3.8c4.6,0,7.9,3.2,7.9,8.6v15.3h-6.6V89.3c0.1-2.4-1.7-4.4-4.1-4.5
	c-2.4-0.1-4.4,1.7-4.5,4.1c0,0.1,0,0.3,0,0.4v13.4h-6.6L201.3,69.9z"/>
<path d="M225.7,91.2c0-6.8,5-12.3,12.5-12.3s12.6,5.4,12.6,12.3s-5,12.3-12.6,12.3S225.7,98,225.7,91.2z M244.2,91.2
	c-0.1-3.3-2.8-5.9-6.1-5.8s-5.9,2.8-5.8,6.1c0.1,3.3,2.7,5.8,6,5.8c3.2,0.1,5.9-2.4,6-5.6C244.2,91.5,244.2,91.3,244.2,91.2z"/>
<path d="M252.4,72.5c0-2.3,1.8-4.1,4.1-4.1c2.3,0,4.1,1.8,4.1,4.1c0,2.3-1.8,4.1-4.1,4.1l0,0C254.3,76.6,252.4,74.8,252.4,72.5
	L252.4,72.5z M253.3,79.6h6.6v23.2h-6.6V79.6z"/>
<path d="M262.4,91.2c-0.2-6.6,4.9-12.1,11.5-12.3c0.2,0,0.5,0,0.7,0c7.3,0,11.3,3.9,12,9.3h-6.9c-0.7-1.9-2.3-3.2-5.1-3.2
	c-3.4,0.2-6,3.2-5.7,6.6c0.2,3.1,2.7,5.5,5.7,5.7c2.8,0,4.4-1.2,5.1-3.2h6.9c-1.1,5.7-4.9,9.3-12,9.3c-6.6,0.2-12.1-5-12.3-11.5
	C262.4,91.7,262.4,91.4,262.4,91.2z"/>
<path d="M311.6,92.7h-17.2c0.1,3,2.6,5.3,5.6,5.3c2.7,0,4.6-1.4,5.2-3.5h6.3c-1.1,5.7-5.3,9-11.5,9c-7.3,0-12.1-5.4-12.1-12.3
	c-0.2-6.6,5-12.1,11.6-12.3c0.1,0,0.3,0,0.4,0c7.3,0,11.7,4.5,11.7,12.8V92.7z M294.7,87.8h10.8c-0.7-2.3-2.5-3.8-5.5-3.8
	C297.6,84,295.4,85.5,294.7,87.8z"/>
<polygon points="309.4,70.7 313.9,70.7 313.9,71.7 312.2,71.7 312.2,76.9 311.1,76.9 311.1,71.7 309.4,71.7 "/>
<path d="M317.8,75.3l-1.7-4.6h-1.3v6.2h1v-3.4c0-0.3,0-0.6-0.1-0.9l1.6,4.4h0.8l1.6-4.4c0,0.3,0,0.6,0,0.9v3.4h1v-6.2h-1.3
	L317.8,75.3z"/>
<g>
	<path d="M192.8,286.1l10.9-8.5c1.4-1.1,2.1-2.2,2.1-3.7c0-1.8-1.2-3.1-3.4-3.1c-2.1,0-3.6,1.5-3.7,3.3h-6.6c0-4.6,3.4-9.1,10.4-9.1
		c6.4,0,10.3,3.4,10.3,8.4c0,4-1.8,6.3-6.1,9.3l-3.3,2.3h9.8v5.9h-20.5v-4.8H192.8z"/>
	<path d="M215.1,278.3c0-7.3,5.4-13.2,13.5-13.2s13.5,5.9,13.5,13.2s-5.4,13.2-13.5,13.2C220.4,291.5,215.1,285.6,215.1,278.3z
		 M235.3,278.3c0-4.2-2.9-6.9-6.7-6.9s-6.7,2.7-6.7,6.9c0,4.2,2.9,6.9,6.7,6.9C232.4,285.2,235.3,282.4,235.3,278.3z"/>
	<path d="M244.5,286.1l10.9-8.5c1.4-1.1,2.1-2.2,2.1-3.7c0-1.8-1.2-3.1-3.4-3.1c-2.1,0-3.6,1.5-3.7,3.3h-6.6c0-4.6,3.4-9.1,10.4-9.1
		c6.4,0,10.3,3.4,10.3,8.4c0,4-1.8,6.3-6.1,9.3l-3.3,2.3h9.8v5.9h-20.5v-4.8H244.5z"/>
	<path d="M267.5,286.8h6.8c0.1,2.5,1.9,4,4.4,4c2.4,0,4.2-1.4,4.2-3.7c0-2.5-1.8-3.7-4.5-3.7h-1.6V278h1.7c2.3,0,3.9-1.4,3.9-3.3
		c0-2-1.5-3.2-3.8-3.2c-2.1,0-3.7,1.4-3.9,3.2h-6.4c0-5.1,4-9.5,10.3-9.5c6.4,0,10.5,3.5,10.5,8.7c0,3.1-1.7,5.3-3.8,6.5
		c2.7,1,4.6,3.5,4.6,7.1c0,5.8-4.6,9.8-11.2,9.8C271.3,297.2,267.5,292.4,267.5,286.8z"/>
</g>
</svg>
